<svg id="Слой_1" data-name="Слой 1" xmlns="http://www.w3.org/2000/svg" viewBox="0 0 72 72"><defs><style>.cls-1{fill:#2a2c2f;}</style></defs><path class="cls-1" d="M3,48.61l3.92-1.93L6.3,42.89,5.67,39l1.72-2.5L6.85,35,9.2,32.42l.94.16,2.43-1.2,3.85-5.8,1.18-.49L18.85,31l-1.65.24L16,28.8,15,32.58h4.16l4.31,1.13,1.73-1.13,2.9,3.06L29.37,30l2,2.09,1.25-1.77,2.05-.56,3-2.82.47-1.37,2.43.4,1,1.37-1.8,3.86,4.47-2.33V27.75l1.73-.4,1.88,1.93L49.77,27V25.34l3.06-2.18,1.26-1.85h2l3.45-7.17,2.69-2.83A36,36,0,0,0,5.47,55.07ZM23.88,29l1.49-1.37,2.43-1.45h2.75l-2.36,1.21-2.75,2V31H23.88Z"/><path class="cls-1" d="M63.54,12.83,61.86,15l.63,1.45,1.64.32,1.34,6v5l2.35,3.3L69,35.64,64.92,33l-1.81-7.65L62,25.58l-.16,5.15-3,4.91L58,43.13l2,.49.87-1,2,2.26,1.49,6.76-.16,4.35H62.33l-.71-6.12-1.33,1.85L57.39,51,55,49l-2.67,1,.16,4.35-2.12.56-3.14,2.42-3.77-.48L42,55.94l-2.35.4.78,1-1.88,1.13-1.49-.73L34.23,59l-4.31-2.17L28.27,53l-1.41.16-1.65-1.37-.08-1-5.26-.56L19,53l-3.3-1.53-1.64-2.82H10.53l-.39,4.51-2,.65-.92,3.72A36,36,0,1,0,63.54,12.83Zm2.4,34.73-3.61-5.47v-.81l3.3,3.55,1.49,2.25Z"/></svg>